<svg xmlns="http://www.w3.org/2000/svg" xmlns:xlink="http://www.w3.org/1999/xlink" width="500" zoomAndPan="magnify" viewBox="0 0 375 374.999991" height="500" preserveAspectRatio="xMidYMid meet" version="1.0"><defs><g/></defs><g fill="#000000" fill-opacity="1"><g transform="translate(8.899176, 211.499986)"><g><path d="M 41.59375 -70 L 66.703125 -9.796875 C 67.703125 -7.460938 68.734375 -5.328125 69.796875 -3.390625 C 70.867188 -1.460938 71.503906 -0.332031 71.703125 0 L 59.59375 0 L 35.703125 -57.296875 C 35.097656 -58.765625 34.3125 -60.613281 33.34375 -62.84375 C 32.382812 -65.082031 31.4375 -66.9375 30.5 -68.40625 C 29.832031 -65.070312 28.582031 -61.535156 26.75 -57.796875 C 24.914062 -54.066406 22.832031 -50.285156 20.5 -46.453125 C 18.164062 -42.617188 15.914062 -38.867188 13.75 -35.203125 C 11.582031 -31.535156 9.800781 -28.066406 8.40625 -24.796875 C 6.601562 -20.535156 5.765625 -17.101562 5.890625 -14.5 C 6.023438 -11.894531 6.84375 -10.191406 8.34375 -9.390625 C 9.84375 -8.597656 11.796875 -8.769531 14.203125 -9.90625 C 15.671875 -10.632812 17.238281 -11.710938 18.90625 -13.140625 C 20.570312 -14.578125 22.269531 -16.175781 24 -17.9375 C 25.726562 -19.707031 27.359375 -21.457031 28.890625 -23.1875 C 30.429688 -24.925781 31.800781 -26.429688 33 -27.703125 C 34.269531 -29.035156 35.703125 -30.050781 37.296875 -30.75 C 38.898438 -31.445312 40.5 -31.429688 42.09375 -30.703125 C 42.757812 -30.429688 43.507812 -29.910156 44.34375 -29.140625 C 45.175781 -28.378906 45.992188 -27.582031 46.796875 -26.75 C 47.597656 -25.914062 48.265625 -25.234375 48.796875 -24.703125 C 47.328125 -25.035156 45.691406 -24.75 43.890625 -23.84375 C 42.097656 -22.945312 40.367188 -21.765625 38.703125 -20.296875 C 36.835938 -18.703125 34.90625 -16.769531 32.90625 -14.5 C 30.90625 -12.226562 28.835938 -9.976562 26.703125 -7.75 C 24.566406 -5.519531 22.332031 -3.671875 20 -2.203125 C 17.664062 -0.734375 15.265625 0 12.796875 0 C 7.535156 0 4.003906 -2.132812 2.203125 -6.40625 C 1.265625 -8.738281 0.960938 -11.238281 1.296875 -13.90625 C 1.628906 -16.570312 2.378906 -19.285156 3.546875 -22.046875 C 4.710938 -24.816406 6.09375 -27.535156 7.6875 -30.203125 C 9.289062 -32.867188 10.925781 -35.382812 12.59375 -37.75 C 14.257812 -40.113281 15.695312 -42.226562 16.90625 -44.09375 C 17.832031 -45.5 18.976562 -47.332031 20.34375 -49.59375 C 21.71875 -51.863281 23.101562 -54.28125 24.5 -56.84375 C 25.894531 -59.414062 27.078125 -61.867188 28.046875 -64.203125 C 29.015625 -66.535156 29.53125 -68.46875 29.59375 -70 Z M 41.59375 -70 "/></g></g></g><g fill="#000000" fill-opacity="1"><g transform="translate(81.79609, 211.499986)"><g><path d="M 28.296875 -43.796875 L 44.59375 -1.90625 L 51.703125 -20.796875 C 52.171875 -21.992188 52.71875 -23.539062 53.34375 -25.4375 C 53.976562 -27.34375 54.53125 -29.164062 55 -30.90625 C 55.9375 -34.832031 55.703125 -37.242188 54.296875 -38.140625 C 52.898438 -39.046875 50.734375 -38.132812 47.796875 -35.40625 C 47.203125 -34.863281 46.632812 -34.3125 46.09375 -33.75 C 45.5625 -33.1875 45.0625 -32.738281 44.59375 -32.40625 C 43.863281 -31.738281 43.046875 -31.253906 42.140625 -30.953125 C 41.242188 -30.648438 40.363281 -30.695312 39.5 -31.09375 C 38.894531 -31.363281 38.109375 -32.03125 37.140625 -33.09375 C 36.179688 -34.164062 35.4375 -34.9375 34.90625 -35.40625 C 35.832031 -35.132812 36.84375 -35.296875 37.9375 -35.890625 C 39.039062 -36.492188 40.128906 -37.226562 41.203125 -38.09375 C 42.671875 -39.425781 44.171875 -40.789062 45.703125 -42.1875 C 47.234375 -43.59375 49.097656 -44.296875 51.296875 -44.296875 C 54.628906 -44.296875 56.832031 -42.960938 57.90625 -40.296875 C 58.695312 -38.429688 58.8125 -36.429688 58.25 -34.296875 C 57.6875 -32.160156 57.035156 -30.160156 56.296875 -28.296875 L 45.296875 0 L 35.90625 0 L 31.59375 -11.296875 L 27.203125 0 L 17.796875 0 L 5.09375 -32.59375 C 4.757812 -33.59375 4.289062 -34.8125 3.6875 -36.25 C 3.09375 -37.6875 2.476562 -39.085938 1.84375 -40.453125 C 1.21875 -41.816406 0.601562 -42.929688 0 -43.796875 L 10.203125 -43.796875 L 26.5 -1.90625 L 30.796875 -13.296875 L 23.296875 -32.59375 C 22.898438 -33.59375 22.414062 -34.8125 21.84375 -36.25 C 21.28125 -37.6875 20.664062 -39.085938 20 -40.453125 C 19.332031 -41.816406 18.695312 -42.929688 18.09375 -43.796875 Z M 28.296875 -43.796875 "/></g></g></g><g fill="#000000" fill-opacity="1"><g transform="translate(141.293519, 211.499986)"><g><path d="M 34.5 -32.703125 C 34.5 -35.703125 34.332031 -38.300781 34 -40.5 C 33.664062 -42.695312 33.5 -43.796875 33.5 -43.796875 L 44.203125 -43.796875 C 44.203125 -43.796875 44.035156 -42.695312 43.703125 -40.5 C 43.367188 -38.300781 43.203125 -35.703125 43.203125 -32.703125 L 43.203125 -11 C 43.203125 -8.0625 43.367188 -5.492188 43.703125 -3.296875 C 44.035156 -1.097656 44.203125 0 44.203125 0 L 34.5 0 L 34.5 -7.203125 C 32.5625 -6.203125 30.359375 -5.148438 27.890625 -4.046875 C 25.429688 -2.953125 22.882812 -2.003906 20.25 -1.203125 C 17.613281 -0.398438 15.0625 0 12.59375 0 C 9.46875 0 7.070312 -0.566406 5.40625 -1.703125 C 3.738281 -2.835938 2.585938 -4.4375 1.953125 -6.5 C 1.316406 -8.5625 1 -10.960938 1 -13.703125 L 1 -32.703125 C 1 -35.703125 0.832031 -38.300781 0.5 -40.5 C 0.164062 -42.695312 0 -43.796875 0 -43.796875 L 10.703125 -43.796875 C 10.703125 -43.796875 10.535156 -42.695312 10.203125 -40.5 C 9.867188 -38.300781 9.703125 -35.703125 9.703125 -32.703125 L 9.703125 -13.5 C 9.703125 -9.03125 10.71875 -5.8125 12.75 -3.84375 C 14.78125 -1.882812 18.128906 -1.738281 22.796875 -3.40625 C 24.929688 -4.195312 27.015625 -5.078125 29.046875 -6.046875 C 31.078125 -7.015625 32.894531 -7.929688 34.5 -8.796875 Z M 34.5 -32.703125 "/></g></g></g><g fill="#000000" fill-opacity="1"><g transform="translate(186.391512, 211.499986)"><g><path d="M 37 -34.40625 C 34.664062 -37.53125 31.863281 -39.476562 28.59375 -40.25 C 25.332031 -41.019531 21.9375 -40.671875 18.40625 -39.203125 C 16.800781 -38.535156 15.265625 -37.832031 13.796875 -37.09375 C 12.328125 -36.363281 10.960938 -35.664062 9.703125 -35 L 9.703125 -11 C 9.703125 -8.0625 9.867188 -5.492188 10.203125 -3.296875 C 10.535156 -1.097656 10.703125 0 10.703125 0 L 0 0 C 0 0 0.164062 -1.097656 0.5 -3.296875 C 0.832031 -5.492188 1 -8.0625 1 -11 L 1 -32.703125 C 1 -35.703125 0.832031 -38.300781 0.5 -40.5 C 0.164062 -42.695312 0 -43.796875 0 -43.796875 L 9.703125 -43.796875 L 9.703125 -36.5 C 10.960938 -37.164062 12.507812 -37.929688 14.34375 -38.796875 C 16.175781 -39.660156 18.09375 -40.492188 20.09375 -41.296875 C 22.09375 -42.097656 24.039062 -42.75 25.9375 -43.25 C 27.84375 -43.75 29.5 -43.929688 30.90625 -43.796875 C 32.300781 -43.660156 33.613281 -43.289062 34.84375 -42.6875 C 36.082031 -42.09375 37.632812 -41 39.5 -39.40625 Z M 37 -34.40625 "/></g></g></g><g fill="#000000" fill-opacity="1"><g transform="translate(225.489722, 211.499986)"><g><path d="M 32 -7.703125 C 28.9375 -5.234375 25.953125 -3.332031 23.046875 -2 C 20.148438 -0.664062 17 0 13.59375 0 C 11.53125 0 9.445312 -0.363281 7.34375 -1.09375 C 5.25 -1.832031 3.5 -2.96875 2.09375 -4.5 C 0.695312 -6.03125 0 -8 0 -10.40625 C -0.0625 -12.863281 0.585938 -14.992188 1.953125 -16.796875 C 3.316406 -18.597656 5.03125 -20.03125 7.09375 -21.09375 C 9.632812 -22.363281 12.351562 -23.066406 15.25 -23.203125 C 18.144531 -23.335938 20.992188 -23.570312 23.796875 -23.90625 C 25.535156 -24.164062 27.238281 -24.660156 28.90625 -25.390625 C 30.570312 -26.128906 31.90625 -27.179688 32.90625 -28.546875 C 33.90625 -29.910156 34.269531 -31.59375 34 -33.59375 C 33.726562 -36.332031 32.625 -38.382812 30.6875 -39.75 C 28.757812 -41.113281 26.5625 -41.929688 24.09375 -42.203125 C 20.03125 -42.671875 16.234375 -42.117188 12.703125 -40.546875 C 9.171875 -38.984375 5.738281 -36.9375 2.40625 -34.40625 L 0 -39.203125 C 2.9375 -40.535156 6.367188 -41.632812 10.296875 -42.5 C 14.234375 -43.363281 18.332031 -43.796875 22.59375 -43.796875 C 24.394531 -43.796875 26.445312 -43.675781 28.75 -43.4375 C 31.050781 -43.207031 33.265625 -42.726562 35.390625 -42 C 37.523438 -41.269531 39.289062 -40.15625 40.6875 -38.65625 C 42.09375 -37.15625 42.796875 -35.101562 42.796875 -32.5 C 42.796875 -30.101562 42.0625 -28.269531 40.59375 -27 C 39.132812 -25.726562 37.335938 -24.84375 35.203125 -24.34375 C 33.066406 -23.84375 30.96875 -23.492188 28.90625 -23.296875 C 26.832031 -23.097656 24.644531 -22.78125 22.34375 -22.34375 C 20.050781 -21.914062 17.867188 -21.25 15.796875 -20.34375 C 13.734375 -19.445312 12.050781 -18.210938 10.75 -16.640625 C 9.445312 -15.078125 8.796875 -13.03125 8.796875 -10.5 C 8.796875 -8.226562 9.492188 -6.507812 10.890625 -5.34375 C 12.296875 -4.175781 14.015625 -3.476562 16.046875 -3.25 C 18.078125 -3.019531 20.03125 -3.132812 21.90625 -3.59375 C 24.570312 -4.332031 27.003906 -5.5 29.203125 -7.09375 C 31.398438 -8.695312 33.363281 -10.429688 35.09375 -12.296875 C 36.832031 -14.160156 38.269531 -15.828125 39.40625 -17.296875 L 40.703125 -8.40625 C 40.898438 -7.070312 41.164062 -5.601562 41.5 -4 C 41.832031 -2.394531 42.234375 -1.0625 42.703125 0 L 33.09375 0 Z M 32 -7.703125 "/></g></g></g><g fill="#000000" fill-opacity="1"><g transform="translate(269.087772, 211.499986)"><g><path d="M 10.703125 -70 C 10.703125 -70 10.535156 -68.898438 10.203125 -66.703125 C 9.867188 -64.503906 9.703125 -61.9375 9.703125 -59 L 9.703125 -33.796875 C 11.703125 -37.328125 14.148438 -39.875 17.046875 -41.4375 C 19.953125 -43.007812 23.035156 -43.796875 26.296875 -43.796875 C 30.160156 -43.796875 33.457031 -42.8125 36.1875 -40.84375 C 38.925781 -38.882812 41.03125 -36.269531 42.5 -33 C 43.96875 -29.726562 44.703125 -26.0625 44.703125 -22 C 44.703125 -18 43.832031 -14.332031 42.09375 -11 C 40.363281 -7.664062 38.046875 -5 35.140625 -3 C 32.242188 -1 29.0625 0 25.59375 0 C 23.132812 0 20.738281 -0.597656 18.40625 -1.796875 C 16.070312 -2.992188 14.035156 -4.992188 12.296875 -7.796875 L 14.59375 -12.796875 C 14.800781 -11.328125 15.285156 -9.707031 16.046875 -7.9375 C 16.816406 -6.175781 17.847656 -4.644531 19.140625 -3.34375 C 20.441406 -2.050781 21.992188 -1.40625 23.796875 -1.40625 C 26.535156 -1.40625 28.800781 -2.453125 30.59375 -4.546875 C 32.394531 -6.648438 33.742188 -9.332031 34.640625 -12.59375 C 35.546875 -15.863281 36 -19.265625 36 -22.796875 C 36 -26.203125 35.582031 -29.40625 34.75 -32.40625 C 33.914062 -35.40625 32.648438 -37.835938 30.953125 -39.703125 C 29.253906 -41.566406 27.070312 -42.46875 24.40625 -42.40625 C 22.46875 -42.40625 20.5 -41.753906 18.5 -40.453125 C 16.5 -39.148438 14.710938 -37.378906 13.140625 -35.140625 C 11.578125 -32.910156 10.429688 -30.332031 9.703125 -27.40625 L 9.703125 0 L 0 0 C 0 0 0.164062 -1.097656 0.5 -3.296875 C 0.832031 -5.492188 1 -8.0625 1 -11 L 1 -59 C 1 -61.9375 0.832031 -64.503906 0.5 -66.703125 C 0.164062 -68.898438 0 -70 0 -70 Z M 10.703125 -70 "/></g></g></g><g fill="#000000" fill-opacity="1"><g transform="translate(314.685746, 211.499986)"><g><path d="M 32 -7.703125 C 28.9375 -5.234375 25.953125 -3.332031 23.046875 -2 C 20.148438 -0.664062 17 0 13.59375 0 C 11.53125 0 9.445312 -0.363281 7.34375 -1.09375 C 5.25 -1.832031 3.5 -2.96875 2.09375 -4.5 C 0.695312 -6.03125 0 -8 0 -10.40625 C -0.0625 -12.863281 0.585938 -14.992188 1.953125 -16.796875 C 3.316406 -18.597656 5.03125 -20.03125 7.09375 -21.09375 C 9.632812 -22.363281 12.351562 -23.066406 15.25 -23.203125 C 18.144531 -23.335938 20.992188 -23.570312 23.796875 -23.90625 C 25.535156 -24.164062 27.238281 -24.660156 28.90625 -25.390625 C 30.570312 -26.128906 31.90625 -27.179688 32.90625 -28.546875 C 33.90625 -29.910156 34.269531 -31.59375 34 -33.59375 C 33.726562 -36.332031 32.625 -38.382812 30.6875 -39.75 C 28.757812 -41.113281 26.5625 -41.929688 24.09375 -42.203125 C 20.03125 -42.671875 16.234375 -42.117188 12.703125 -40.546875 C 9.171875 -38.984375 5.738281 -36.9375 2.40625 -34.40625 L 0 -39.203125 C 2.9375 -40.535156 6.367188 -41.632812 10.296875 -42.5 C 14.234375 -43.363281 18.332031 -43.796875 22.59375 -43.796875 C 24.394531 -43.796875 26.445312 -43.675781 28.75 -43.4375 C 31.050781 -43.207031 33.265625 -42.726562 35.390625 -42 C 37.523438 -41.269531 39.289062 -40.15625 40.6875 -38.65625 C 42.09375 -37.15625 42.796875 -35.101562 42.796875 -32.5 C 42.796875 -30.101562 42.0625 -28.269531 40.59375 -27 C 39.132812 -25.726562 37.335938 -24.84375 35.203125 -24.34375 C 33.066406 -23.84375 30.96875 -23.492188 28.90625 -23.296875 C 26.832031 -23.097656 24.644531 -22.78125 22.34375 -22.34375 C 20.050781 -21.914062 17.867188 -21.25 15.796875 -20.34375 C 13.734375 -19.445312 12.050781 -18.210938 10.75 -16.640625 C 9.445312 -15.078125 8.796875 -13.03125 8.796875 -10.5 C 8.796875 -8.226562 9.492188 -6.507812 10.890625 -5.34375 C 12.296875 -4.175781 14.015625 -3.476562 16.046875 -3.25 C 18.078125 -3.019531 20.03125 -3.132812 21.90625 -3.59375 C 24.570312 -4.332031 27.003906 -5.5 29.203125 -7.09375 C 31.398438 -8.695312 33.363281 -10.429688 35.09375 -12.296875 C 36.832031 -14.160156 38.269531 -15.828125 39.40625 -17.296875 L 40.703125 -8.40625 C 40.898438 -7.070312 41.164062 -5.601562 41.5 -4 C 41.832031 -2.394531 42.234375 -1.0625 42.703125 0 L 33.09375 0 Z M 32 -7.703125 "/></g></g></g></svg>